<mxfile host="app.diagrams.net" modified="2022-08-20T03:46:03.337Z" agent="5.0 (Macintosh; Intel Mac OS X 10_14_6) AppleWebKit/537.36 (KHTML, like Gecko) Chrome/104.0.0.0 Safari/537.36" etag="kJ8Y6w54g5S4fCTg6jUV" version="20.2.3" type="github">
  <diagram id="RRGLoNkaxLFfZuR8v2fn" name="第 1 页">
    <mxGraphModel dx="1019" dy="532" grid="0" gridSize="10" guides="1" tooltips="1" connect="1" arrows="1" fold="1" page="0" pageScale="1" pageWidth="827" pageHeight="1169" math="0" shadow="0">
      <root>
        <mxCell id="0" />
        <mxCell id="1" parent="0" />
        <mxCell id="vaNRCUVq2-tZpA7xnZXh-3" value="" style="edgeStyle=orthogonalEdgeStyle;rounded=0;orthogonalLoop=1;jettySize=auto;html=1;fontSize=14;" edge="1" parent="1" source="vaNRCUVq2-tZpA7xnZXh-1" target="vaNRCUVq2-tZpA7xnZXh-2">
          <mxGeometry relative="1" as="geometry" />
        </mxCell>
        <mxCell id="vaNRCUVq2-tZpA7xnZXh-7" value="&lt;font style=&quot;font-size: 12px;&quot;&gt;依赖&lt;/font&gt;" style="edgeLabel;html=1;align=center;verticalAlign=middle;resizable=0;points=[];fontSize=14;" vertex="1" connectable="0" parent="vaNRCUVq2-tZpA7xnZXh-3">
          <mxGeometry x="-0.18" y="1" relative="1" as="geometry">
            <mxPoint x="2" y="1" as="offset" />
          </mxGeometry>
        </mxCell>
        <mxCell id="vaNRCUVq2-tZpA7xnZXh-1" value="&lt;font style=&quot;font-size: 12px;&quot;&gt;用户类&lt;/font&gt;" style="rounded=1;whiteSpace=wrap;html=1;strokeWidth=2;fillWeight=4;hachureGap=8;hachureAngle=45;fillColor=#dae8fc;sketch=1;strokeColor=#6c8ebf;" vertex="1" parent="1">
          <mxGeometry x="120" y="40" width="90" height="50" as="geometry" />
        </mxCell>
        <mxCell id="vaNRCUVq2-tZpA7xnZXh-2" value="&lt;font style=&quot;font-size: 12px;&quot;&gt;用户信息类&lt;/font&gt;" style="rounded=1;whiteSpace=wrap;html=1;strokeWidth=2;fillWeight=4;hachureGap=8;hachureAngle=45;fillColor=#dae8fc;sketch=1;strokeColor=#6c8ebf;" vertex="1" parent="1">
          <mxGeometry x="260" y="40" width="90" height="50" as="geometry" />
        </mxCell>
        <mxCell id="vaNRCUVq2-tZpA7xnZXh-4" value="&lt;div style=&quot;text-align: left;&quot;&gt;&lt;div&gt;&lt;span style=&quot;background-color: initial;&quot;&gt;&lt;font style=&quot;font-size: 12px;&quot;&gt;客户端类：&lt;/font&gt;&lt;/span&gt;&lt;/div&gt;&lt;div&gt;&lt;span style=&quot;background-color: initial;&quot;&gt;&lt;font style=&quot;font-size: 12px;&quot;&gt;1. 创建用户类&lt;/font&gt;&lt;/span&gt;&lt;/div&gt;&lt;font style=&quot;text-align: center; font-size: 12px;&quot;&gt;&lt;div style=&quot;text-align: left;&quot;&gt;&lt;span style=&quot;background-color: initial;&quot;&gt;2. 创建用户信息&lt;/span&gt;&lt;/div&gt;&lt;div style=&quot;text-align: left;&quot;&gt;&lt;span style=&quot;background-color: initial;&quot;&gt;3. 将用户信息主动注入到用户类&lt;/span&gt;&lt;/div&gt;&lt;/font&gt;&lt;/div&gt;" style="rounded=1;whiteSpace=wrap;html=1;strokeWidth=2;fillWeight=4;hachureGap=8;hachureAngle=45;fillColor=#ffe6cc;sketch=1;strokeColor=#d79b00;" vertex="1" parent="1">
          <mxGeometry x="120" y="150" width="220" height="100" as="geometry" />
        </mxCell>
        <mxCell id="vaNRCUVq2-tZpA7xnZXh-5" value="" style="curved=1;endArrow=classic;html=1;rounded=0;fontSize=14;exitX=0.25;exitY=0;exitDx=0;exitDy=0;entryX=0.5;entryY=1;entryDx=0;entryDy=0;" edge="1" parent="1" source="vaNRCUVq2-tZpA7xnZXh-4" target="vaNRCUVq2-tZpA7xnZXh-1">
          <mxGeometry width="50" height="50" relative="1" as="geometry">
            <mxPoint x="80" y="160" as="sourcePoint" />
            <mxPoint x="130" y="110" as="targetPoint" />
            <Array as="points">
              <mxPoint x="150" y="140" />
            </Array>
          </mxGeometry>
        </mxCell>
        <mxCell id="vaNRCUVq2-tZpA7xnZXh-8" value="&lt;font style=&quot;font-size: 12px;&quot;&gt;主动创建&lt;/font&gt;" style="edgeLabel;html=1;align=center;verticalAlign=middle;resizable=0;points=[];fontSize=14;" vertex="1" connectable="0" parent="vaNRCUVq2-tZpA7xnZXh-5">
          <mxGeometry x="-0.0379" y="-2" relative="1" as="geometry">
            <mxPoint y="-9" as="offset" />
          </mxGeometry>
        </mxCell>
        <mxCell id="vaNRCUVq2-tZpA7xnZXh-6" value="" style="curved=1;endArrow=classic;html=1;rounded=0;fontSize=14;exitX=0.75;exitY=0;exitDx=0;exitDy=0;entryX=0.5;entryY=1;entryDx=0;entryDy=0;" edge="1" parent="1" source="vaNRCUVq2-tZpA7xnZXh-4" target="vaNRCUVq2-tZpA7xnZXh-2">
          <mxGeometry width="50" height="50" relative="1" as="geometry">
            <mxPoint x="480" y="140" as="sourcePoint" />
            <mxPoint x="530" y="90" as="targetPoint" />
            <Array as="points">
              <mxPoint x="330" y="130" />
            </Array>
          </mxGeometry>
        </mxCell>
        <mxCell id="vaNRCUVq2-tZpA7xnZXh-9" value="主动创建" style="edgeLabel;html=1;align=center;verticalAlign=middle;resizable=0;points=[];fontSize=12;" vertex="1" connectable="0" parent="vaNRCUVq2-tZpA7xnZXh-6">
          <mxGeometry x="0.0326" y="4" relative="1" as="geometry">
            <mxPoint x="-7" y="-9" as="offset" />
          </mxGeometry>
        </mxCell>
        <mxCell id="vaNRCUVq2-tZpA7xnZXh-11" value="" style="edgeStyle=orthogonalEdgeStyle;rounded=0;orthogonalLoop=1;jettySize=auto;html=1;fontSize=14;" edge="1" parent="1" source="vaNRCUVq2-tZpA7xnZXh-13" target="vaNRCUVq2-tZpA7xnZXh-14">
          <mxGeometry relative="1" as="geometry" />
        </mxCell>
        <mxCell id="vaNRCUVq2-tZpA7xnZXh-12" value="&lt;font style=&quot;font-size: 12px;&quot;&gt;依赖&lt;/font&gt;" style="edgeLabel;html=1;align=center;verticalAlign=middle;resizable=0;points=[];fontSize=14;" vertex="1" connectable="0" parent="vaNRCUVq2-tZpA7xnZXh-11">
          <mxGeometry x="-0.18" y="1" relative="1" as="geometry">
            <mxPoint as="offset" />
          </mxGeometry>
        </mxCell>
        <mxCell id="vaNRCUVq2-tZpA7xnZXh-13" value="&lt;font style=&quot;font-size: 12px;&quot;&gt;用户类&lt;/font&gt;" style="rounded=1;whiteSpace=wrap;html=1;strokeWidth=2;fillWeight=4;hachureGap=8;hachureAngle=45;fillColor=#dae8fc;sketch=1;strokeColor=#6c8ebf;" vertex="1" parent="1">
          <mxGeometry x="378" y="40" width="90" height="50" as="geometry" />
        </mxCell>
        <mxCell id="vaNRCUVq2-tZpA7xnZXh-14" value="&lt;font style=&quot;font-size: 12px;&quot;&gt;用户信息类&lt;/font&gt;" style="rounded=1;whiteSpace=wrap;html=1;strokeWidth=2;fillWeight=4;hachureGap=8;hachureAngle=45;fillColor=#dae8fc;sketch=1;strokeColor=#6c8ebf;" vertex="1" parent="1">
          <mxGeometry x="568" y="40" width="90" height="50" as="geometry" />
        </mxCell>
        <mxCell id="vaNRCUVq2-tZpA7xnZXh-15" value="&lt;div style=&quot;text-align: left;&quot;&gt;&lt;div&gt;&lt;span style=&quot;background-color: initial;&quot;&gt;&lt;font style=&quot;font-size: 12px;&quot;&gt;IoC容器：&lt;/font&gt;&lt;/span&gt;&lt;/div&gt;&lt;div&gt;&lt;span style=&quot;background-color: initial;&quot;&gt;&lt;font style=&quot;font-size: 12px;&quot;&gt;1. 创建用户类&lt;/font&gt;&lt;/span&gt;&lt;/div&gt;&lt;font style=&quot;text-align: center; font-size: 12px;&quot;&gt;&lt;div style=&quot;text-align: left;&quot;&gt;&lt;span style=&quot;background-color: initial;&quot;&gt;2. 看用户类是否有依赖对象需要注入&lt;/span&gt;&lt;/div&gt;&lt;div style=&quot;text-align: left;&quot;&gt;&lt;span style=&quot;background-color: initial;&quot;&gt;3. 有用户信息类需要注入，创建并将其注入&lt;/span&gt;&lt;/div&gt;&lt;div style=&quot;text-align: left;&quot;&gt;&lt;span style=&quot;background-color: initial;&quot;&gt;4. 由容器管理这些对象的生命周期&lt;/span&gt;&lt;/div&gt;&lt;/font&gt;&lt;/div&gt;" style="rounded=1;whiteSpace=wrap;html=1;strokeWidth=2;fillWeight=4;hachureGap=8;hachureAngle=45;fillColor=#ffe6cc;sketch=1;strokeColor=#d79b00;" vertex="1" parent="1">
          <mxGeometry x="381" y="150" width="264" height="99" as="geometry" />
        </mxCell>
        <mxCell id="vaNRCUVq2-tZpA7xnZXh-16" value="" style="curved=1;endArrow=classic;html=1;rounded=0;fontSize=14;exitX=0.25;exitY=0;exitDx=0;exitDy=0;entryX=0.5;entryY=1;entryDx=0;entryDy=0;" edge="1" parent="1" source="vaNRCUVq2-tZpA7xnZXh-15" target="vaNRCUVq2-tZpA7xnZXh-13">
          <mxGeometry width="50" height="50" relative="1" as="geometry">
            <mxPoint x="334" y="160" as="sourcePoint" />
            <mxPoint x="384" y="110" as="targetPoint" />
            <Array as="points">
              <mxPoint x="409" y="140" />
            </Array>
          </mxGeometry>
        </mxCell>
        <mxCell id="vaNRCUVq2-tZpA7xnZXh-17" value="&lt;font style=&quot;font-size: 12px;&quot;&gt;主动创建&lt;/font&gt;" style="edgeLabel;html=1;align=center;verticalAlign=middle;resizable=0;points=[];fontSize=14;" vertex="1" connectable="0" parent="vaNRCUVq2-tZpA7xnZXh-16">
          <mxGeometry x="-0.0379" y="-2" relative="1" as="geometry">
            <mxPoint x="6" y="-16" as="offset" />
          </mxGeometry>
        </mxCell>
        <mxCell id="vaNRCUVq2-tZpA7xnZXh-18" value="" style="curved=1;endArrow=classic;html=1;rounded=0;fontSize=14;exitX=0.75;exitY=0;exitDx=0;exitDy=0;entryX=0.5;entryY=1;entryDx=0;entryDy=0;" edge="1" parent="1" source="vaNRCUVq2-tZpA7xnZXh-15" target="vaNRCUVq2-tZpA7xnZXh-14">
          <mxGeometry width="50" height="50" relative="1" as="geometry">
            <mxPoint x="734" y="140" as="sourcePoint" />
            <mxPoint x="784" y="90" as="targetPoint" />
            <Array as="points">
              <mxPoint x="624" y="130" />
            </Array>
          </mxGeometry>
        </mxCell>
        <mxCell id="vaNRCUVq2-tZpA7xnZXh-19" value="主动创建" style="edgeLabel;html=1;align=center;verticalAlign=middle;resizable=0;points=[];fontSize=12;" vertex="1" connectable="0" parent="vaNRCUVq2-tZpA7xnZXh-18">
          <mxGeometry x="0.0326" y="4" relative="1" as="geometry">
            <mxPoint x="-7" y="-5" as="offset" />
          </mxGeometry>
        </mxCell>
        <mxCell id="vaNRCUVq2-tZpA7xnZXh-21" value="" style="edgeStyle=orthogonalEdgeStyle;rounded=0;orthogonalLoop=1;jettySize=auto;html=1;fontSize=12;" edge="1" parent="1" source="vaNRCUVq2-tZpA7xnZXh-20" target="vaNRCUVq2-tZpA7xnZXh-15">
          <mxGeometry relative="1" as="geometry" />
        </mxCell>
        <mxCell id="vaNRCUVq2-tZpA7xnZXh-22" value="" style="edgeStyle=orthogonalEdgeStyle;rounded=0;orthogonalLoop=1;jettySize=auto;html=1;fontSize=12;" edge="1" parent="1" source="vaNRCUVq2-tZpA7xnZXh-20" target="vaNRCUVq2-tZpA7xnZXh-15">
          <mxGeometry relative="1" as="geometry" />
        </mxCell>
        <mxCell id="vaNRCUVq2-tZpA7xnZXh-23" value="获取用户类" style="edgeLabel;html=1;align=center;verticalAlign=middle;resizable=0;points=[];fontSize=12;" vertex="1" connectable="0" parent="vaNRCUVq2-tZpA7xnZXh-22">
          <mxGeometry x="-0.0343" y="2" relative="1" as="geometry">
            <mxPoint as="offset" />
          </mxGeometry>
        </mxCell>
        <mxCell id="vaNRCUVq2-tZpA7xnZXh-20" value="&lt;div style=&quot;text-align: left;&quot;&gt;&lt;div&gt;&lt;span style=&quot;background-color: initial;&quot;&gt;&lt;font style=&quot;font-size: 12px;&quot;&gt;客户端类：&lt;/font&gt;&lt;/span&gt;&lt;span style=&quot;background-color: initial;&quot;&gt;直接从容器获取用户类&lt;/span&gt;&lt;/div&gt;&lt;/div&gt;" style="rounded=1;whiteSpace=wrap;html=1;strokeWidth=2;fillWeight=4;hachureGap=8;hachureAngle=45;fillColor=#fff2cc;sketch=1;strokeColor=#d6b656;" vertex="1" parent="1">
          <mxGeometry x="405.5" y="293" width="215" height="60" as="geometry" />
        </mxCell>
        <mxCell id="vaNRCUVq2-tZpA7xnZXh-24" value="&lt;span style=&quot;font-family: Helvetica; font-size: 12px; font-style: normal; font-variant-ligatures: normal; font-variant-caps: normal; letter-spacing: normal; orphans: 2; text-align: center; text-indent: 0px; text-transform: none; widows: 2; word-spacing: 0px; -webkit-text-stroke-width: 0px; background-color: rgb(248, 249, 250); text-decoration-thickness: initial; text-decoration-style: initial; text-decoration-color: initial; float: none; display: inline !important;&quot;&gt;&lt;b style=&quot;&quot;&gt;&lt;font color=&quot;#ff0000&quot;&gt;传统模式&lt;/font&gt;&lt;/b&gt;&lt;/span&gt;" style="text;whiteSpace=wrap;html=1;fontSize=12;" vertex="1" parent="1">
          <mxGeometry x="210" y="10" width="70" height="40" as="geometry" />
        </mxCell>
        <mxCell id="vaNRCUVq2-tZpA7xnZXh-25" value="&lt;div style=&quot;text-align: center;&quot;&gt;&lt;span style=&quot;background-color: initial;&quot;&gt;&lt;b&gt;&lt;font color=&quot;#ff0000&quot;&gt;控制反转&lt;/font&gt;&lt;/b&gt;&lt;/span&gt;&lt;/div&gt;" style="text;whiteSpace=wrap;html=1;fontSize=12;" vertex="1" parent="1">
          <mxGeometry x="494" y="10" width="70" height="40" as="geometry" />
        </mxCell>
        <mxCell id="vaNRCUVq2-tZpA7xnZXh-26" value="" style="endArrow=none;dashed=1;html=1;rounded=0;fontSize=12;fontColor=#FF0000;strokeColor=#666666;" edge="1" parent="1">
          <mxGeometry width="50" height="50" relative="1" as="geometry">
            <mxPoint x="367" y="349" as="sourcePoint" />
            <mxPoint x="364" y="26" as="targetPoint" />
          </mxGeometry>
        </mxCell>
      </root>
    </mxGraphModel>
  </diagram>
</mxfile>
